<svg width="24" height="24" viewBox="0 0 24 24" fill="none" xmlns="http://www.w3.org/2000/svg">
<path fill-rule="evenodd" clip-rule="evenodd" d="M4.92857 3H11.1964V4.48886C10.8032 4.41874 10.3994 4.43569 10.0135 4.5385C9.62755 4.64132 9.26884 4.8275 8.96264 5.08393C8.65643 5.34037 8.41017 5.66082 8.2412 6.02272C8.07223 6.38462 7.98466 6.77917 7.98466 7.17857C7.98466 7.57797 8.07223 7.97252 8.2412 8.33442C8.41017 8.69632 8.65643 9.01677 8.96264 9.27321C9.26884 9.52964 9.62755 9.71583 10.0135 9.81864C10.3994 9.92145 10.8032 9.9384 11.1964 9.86829V11.1964H8.616C8.46078 11.1963 8.30885 11.2412 8.17857 11.3255C8.04829 11.4099 7.94523 11.5302 7.88186 11.6719C7.81849 11.8136 7.79752 11.9707 7.82148 12.124C7.84543 12.2774 7.91329 12.4205 8.01686 12.5361C8.16152 12.6981 8.25623 12.8984 8.28958 13.1129C8.32293 13.3275 8.29348 13.5471 8.20478 13.7452C8.11609 13.9434 7.97195 14.1117 7.78974 14.2298C7.60753 14.3479 7.39505 14.4107 7.17793 14.4107C6.96081 14.4107 6.74832 14.3479 6.56612 14.2298C6.38391 14.1117 6.23976 13.9434 6.15107 13.7452C6.06238 13.5471 6.03293 13.3275 6.06628 13.1129C6.09962 12.8984 6.19434 12.6981 6.339 12.5361C6.44249 12.4206 6.51033 12.2776 6.53433 12.1243C6.55833 11.9711 6.53747 11.8142 6.47426 11.6725C6.41104 11.5309 6.30819 11.4106 6.1781 11.3261C6.04801 11.2416 5.89626 11.1966 5.74114 11.1964H3V4.92857C3 4.41708 3.20319 3.92654 3.56487 3.56487C3.92654 3.20319 4.41708 3 4.92857 3ZM3 12.8036V19.0714C3 19.5829 3.20319 20.0735 3.56487 20.4351C3.92654 20.7968 4.41708 21 4.92857 21H11.1964V18.2589C11.1963 18.1036 11.2412 17.9517 11.3255 17.8214C11.4099 17.6911 11.5302 17.5881 11.6719 17.5247C11.8136 17.4614 11.9707 17.4404 12.124 17.4643C12.2774 17.4883 12.4205 17.5562 12.5361 17.6597C12.6981 17.8044 12.8984 17.8991 13.1129 17.9324C13.3275 17.9658 13.5471 17.9363 13.7452 17.8476C13.9434 17.7589 14.1117 17.6148 14.2298 17.4326C14.3479 17.2504 14.4107 17.0379 14.4107 16.8208C14.4107 16.6037 14.3479 16.3912 14.2298 16.209C14.1117 16.0268 13.9434 15.8826 13.7452 15.7939C13.5471 15.7052 13.3275 15.6758 13.1129 15.7091C12.8984 15.7425 12.6981 15.8372 12.5361 15.9819C12.4206 16.0853 12.2776 16.1532 12.1243 16.1772C11.9711 16.2012 11.8142 16.1803 11.6725 16.1171C11.5309 16.0539 11.4106 15.951 11.3261 15.821C11.2416 15.6909 11.1966 15.5391 11.1964 15.384V12.8036H9.86829C9.9384 13.1968 9.92145 13.6006 9.81864 13.9865C9.71583 14.3724 9.52964 14.7312 9.27321 15.0374C9.01677 15.3436 8.69632 15.5898 8.33442 15.7588C7.97252 15.9278 7.57797 16.0153 7.17857 16.0153C6.77917 16.0153 6.38462 15.9278 6.02272 15.7588C5.66082 15.5898 5.34037 15.3436 5.08393 15.0374C4.8275 14.7312 4.64132 14.3724 4.5385 13.9865C4.43569 13.6006 4.41874 13.1968 4.48886 12.8036H3ZM12.8036 12.8036V14.1317C13.1968 14.0616 13.6006 14.0785 13.9865 14.1814C14.3724 14.2842 14.7312 14.4704 15.0374 14.7268C15.3436 14.9832 15.5898 15.3037 15.7588 15.6656C15.9278 16.0275 16.0153 16.422 16.0153 16.8214C16.0153 17.2208 15.9278 17.6154 15.7588 17.9773C15.5898 18.3392 15.3436 18.6596 15.0374 18.9161C14.7312 19.1725 14.3724 19.3587 13.9865 19.4615C13.6006 19.5643 13.1968 19.5813 12.8036 19.5111V21H19.0714C19.5829 21 20.0735 20.7968 20.4351 20.4351C20.7968 20.0735 21 19.5829 21 19.0714V12.8036H18.2589C18.1036 12.8037 17.9517 12.7588 17.8214 12.6745C17.6911 12.5901 17.5881 12.4698 17.5247 12.3281C17.4614 12.1864 17.4404 12.0293 17.4643 11.876C17.4883 11.7226 17.5562 11.5795 17.6597 11.4639C17.8044 11.3019 17.8991 11.1016 17.9324 10.8871C17.9658 10.6725 17.9363 10.4529 17.8476 10.2548C17.7589 10.0566 17.6148 9.88829 17.4326 9.77021C17.2504 9.65214 17.0379 9.58931 16.8208 9.58931C16.6037 9.58931 16.3912 9.65214 16.209 9.77021C16.0268 9.88829 15.8826 10.0566 15.7939 10.2548C15.7052 10.4529 15.6758 10.6725 15.7091 10.8871C15.7425 11.1016 15.8372 11.3019 15.9819 11.4639C16.0853 11.5794 16.1532 11.7224 16.1772 11.8757C16.2012 12.0289 16.1803 12.1858 16.1171 12.3275C16.0539 12.4691 15.951 12.5894 15.821 12.6739C15.6909 12.7584 15.5391 12.8034 15.384 12.8036H12.8036ZM21 11.1964V4.92857C21 4.41708 20.7968 3.92654 20.4351 3.56487C20.0735 3.20319 19.5829 3 19.0714 3H12.8036V5.74114C12.8037 5.89636 12.7588 6.0483 12.6745 6.17858C12.5901 6.30886 12.4698 6.41191 12.3281 6.47528C12.1864 6.53865 12.0293 6.55962 11.876 6.53567C11.7226 6.51171 11.5795 6.44385 11.4639 6.34029C11.3019 6.19563 11.1016 6.10091 10.8871 6.06756C10.6725 6.03422 10.4529 6.06367 10.2548 6.15236C10.0566 6.24105 9.88829 6.3852 9.77021 6.5674C9.65214 6.74961 9.58931 6.96209 9.58931 7.17921C9.58931 7.39634 9.65214 7.60882 9.77021 7.79103C9.88829 7.97323 10.0566 8.11738 10.2548 8.20607C10.4529 8.29476 10.6725 8.32421 10.8871 8.29087C11.1016 8.25752 11.3019 8.1628 11.4639 8.01814C11.5794 7.91465 11.7224 7.84681 11.8757 7.82281C12.0289 7.79881 12.1858 7.81968 12.3275 7.88289C12.4691 7.9461 12.5894 8.04896 12.6739 8.17904C12.7584 8.30913 12.8034 8.46089 12.8036 8.616V11.1964H14.1317C14.0616 10.8032 14.0785 10.3994 14.1814 10.0135C14.2842 9.62755 14.4704 9.26884 14.7268 8.96264C14.9832 8.65643 15.3037 8.41017 15.6656 8.2412C16.0275 8.07223 16.422 7.98466 16.8214 7.98466C17.2208 7.98466 17.6154 8.07223 17.9773 8.2412C18.3392 8.41017 18.6596 8.65643 18.9161 8.96264C19.1725 9.26884 19.3587 9.62755 19.4615 10.0135C19.5643 10.3994 19.5813 10.8032 19.5111 11.1964H21Z" fill="#3E3E3E" fill-opacity="0.25"/>
<path fill-rule="evenodd" clip-rule="evenodd" d="M4.92857 3H11.1964V4.48886C10.8032 4.41874 10.3994 4.43569 10.0135 4.5385C9.62755 4.64132 9.26884 4.8275 8.96264 5.08393C8.65643 5.34037 8.41017 5.66082 8.2412 6.02272C8.07223 6.38462 7.98466 6.77917 7.98466 7.17857C7.98466 7.57797 8.07223 7.97252 8.2412 8.33442C8.41017 8.69632 8.65643 9.01677 8.96264 9.27321C9.26884 9.52964 9.62755 9.71583 10.0135 9.81864C10.3994 9.92145 10.8032 9.9384 11.1964 9.86829V11.1964H8.616C8.46078 11.1963 8.30885 11.2412 8.17857 11.3255C8.04829 11.4099 7.94523 11.5302 7.88186 11.6719C7.81849 11.8136 7.79752 11.9707 7.82148 12.124C7.84543 12.2774 7.91329 12.4205 8.01686 12.5361C8.16152 12.6981 8.25623 12.8984 8.28958 13.1129C8.32293 13.3275 8.29348 13.5471 8.20478 13.7452C8.11609 13.9434 7.97195 14.1117 7.78974 14.2298C7.60753 14.3479 7.39505 14.4107 7.17793 14.4107C6.96081 14.4107 6.74832 14.3479 6.56612 14.2298C6.38391 14.1117 6.23976 13.9434 6.15107 13.7452C6.06238 13.5471 6.03293 13.3275 6.06628 13.1129C6.09962 12.8984 6.19434 12.6981 6.339 12.5361C6.44249 12.4206 6.51033 12.2776 6.53433 12.1243C6.55833 11.9711 6.53747 11.8142 6.47426 11.6725C6.41104 11.5309 6.30819 11.4106 6.1781 11.3261C6.04801 11.2416 5.89626 11.1966 5.74114 11.1964H3V4.92857C3 4.41708 3.20319 3.92654 3.56487 3.56487C3.92654 3.20319 4.41708 3 4.92857 3Z" fill="#9E9E9E"/>
</svg>
