<svg width="34" height="34" viewBox="0 0 34 34" fill="none" xmlns="http://www.w3.org/2000/svg">
<rect width="34" height="34" rx="10" fill="#3E3E3E"/>
<path d="M11.7553 12.0288C12.6431 12.0285 13.5055 12.3185 14.2055 12.8527C14.9056 13.3868 15.4033 14.1346 15.6195 14.9772C16.0614 14.7488 16.5531 14.6284 17.0529 14.6263C17.5526 14.6241 18.0454 14.7404 18.4892 14.965C18.9331 15.1896 19.3149 15.516 19.6019 15.9163C19.889 16.3166 20.0728 16.7789 20.1378 17.2638C20.6793 17.3646 21.1628 17.6595 21.4938 18.0909C21.8248 18.5222 21.9794 19.0589 21.9272 19.5959C21.8751 20.133 21.62 20.6316 21.2119 20.9942C20.8038 21.3568 20.2721 21.5573 19.7209 21.5564H9.10016C8.39614 21.557 7.71293 21.3228 7.16309 20.8925C6.61325 20.4623 6.22959 19.8615 6.0753 19.1893C5.92102 18.5171 6.00532 17.8134 6.31432 17.1944C6.62332 16.5753 7.13858 16.0777 7.77522 15.7836C7.81302 14.7753 8.2489 13.8206 8.99119 13.1204C9.73348 12.4201 10.7243 12.0288 11.7553 12.0288Z" fill="white"/>
<path d="M17.8178 11C18.7056 10.9997 19.568 11.2854 20.268 11.8117C20.9681 12.338 21.4658 13.0748 21.682 13.905C22.1239 13.68 22.6156 13.5613 23.1154 13.5592C23.6151 13.5571 24.1079 13.6717 24.5517 13.893C24.9956 14.1143 25.3774 14.4359 25.6644 14.8303C25.9515 15.2247 26.1353 15.6802 26.2003 16.158C26.7418 16.2573 27.2253 16.5479 27.5563 16.9729C27.8873 17.3979 28.0419 17.9267 27.9897 18.4558C27.9376 18.9849 27.6825 19.4762 27.2744 19.8335C26.8663 20.1908 26.3346 20.3884 25.7834 20.3875H15.1627C14.4586 20.388 13.7754 20.1573 13.2256 19.7334C12.6758 19.3094 12.2921 18.7175 12.1378 18.0551C11.9835 17.3928 12.0678 16.6995 12.3768 16.0896C12.6858 15.4796 13.2011 14.9893 13.8377 14.6995C13.8755 13.7061 14.3114 12.7654 15.0537 12.0755C15.796 11.3855 16.7868 11 17.8178 11Z" fill="white" fill-opacity="0.8"/>
<path d="M15.9563 16.3123C16.5877 16.3121 17.201 16.5156 17.6989 16.8905C18.1967 17.2655 18.5507 17.7904 18.7044 18.3818C19.0187 18.2215 19.3684 18.137 19.7238 18.1355C20.0792 18.134 20.4296 18.2156 20.7453 18.3732C21.061 18.5309 21.3325 18.76 21.5366 19.041C21.7408 19.322 21.8715 19.6465 21.9177 19.9869C22.3028 20.0576 22.6467 20.2646 22.8821 20.5674C23.1175 20.8702 23.2274 21.2469 23.1903 21.6238C23.1532 22.0008 22.9718 22.3508 22.6816 22.6053C22.3914 22.8599 22.0132 23.0006 21.6212 23H14.068C13.5674 23.0004 13.0815 22.836 12.6904 22.534C12.2994 22.2319 12.0266 21.8103 11.9168 21.3384C11.8071 20.8665 11.8671 20.3727 12.0868 19.9381C12.3066 19.5036 12.673 19.1543 13.1258 18.9478C13.1527 18.2401 13.4626 17.57 13.9905 17.0784C14.5184 16.5869 15.2231 16.3123 15.9563 16.3123Z" fill="white" fill-opacity="0.5"/>
</svg>
