<svg width="24" height="24" viewBox="0 0 24 24" fill="none" xmlns="http://www.w3.org/2000/svg">
<path fill-rule="evenodd" clip-rule="evenodd" d="M11.9817 9.41104C13.3625 9.41104 14.4817 8.31167 14.4817 6.95552C14.4817 5.59937 13.3625 4.5 11.9817 4.5C10.601 4.5 9.48174 5.59937 9.48174 6.95552C9.48174 8.31167 10.601 9.41104 11.9817 9.41104ZM11.6028 10.4792L12.0035 11.1365L12.4042 10.4792C12.6633 10.0542 13.1955 9.88439 13.6528 10.0809L15.3588 10.8138C15.7261 10.9716 15.9641 11.3329 15.9641 11.7326V13.1697C15.9641 13.722 15.5164 14.1697 14.9641 14.1697H12.3016C12.1978 14.1697 12.0977 14.1539 12.0035 14.1245C11.9094 14.1539 11.8093 14.1697 11.7054 14.1697H9.04297C8.49068 14.1697 8.04297 13.722 8.04297 13.1697V11.7326C8.04297 11.3329 8.28098 10.9716 8.64822 10.8138L10.3542 10.0809C10.8115 9.88439 11.3437 10.0542 11.6028 10.4792Z" fill="#3E3E3E" fill-opacity="0.2"/>
<path fill-rule="evenodd" clip-rule="evenodd" d="M6.94025 14.4512C8.32096 14.4512 9.44025 13.3319 9.44025 11.9512C9.44025 10.5705 8.32096 9.4512 6.94025 9.4512C5.55954 9.4512 4.44025 10.5705 4.44025 11.9512C4.44025 13.3319 5.55954 14.4512 6.94025 14.4512ZM6.56331 15.5174L6.9595 16.3967L7.35569 15.5174C7.59931 14.9768 8.2572 14.7657 8.7699 15.0637L10.4215 16.0236C10.7295 16.2026 10.919 16.532 10.919 16.8882V19.5C10.919 20.0523 10.4713 20.5 9.919 20.5H7.25735C7.15362 20.5 7.05358 20.4842 6.9595 20.4549C6.86542 20.4842 6.76538 20.5 6.66165 20.5H4C3.44772 20.5 3 20.0523 3 19.5V16.8882C3 16.532 3.18951 16.2026 3.4975 16.0236L5.1491 15.0637C5.66179 14.7657 6.31968 14.9768 6.56331 15.5174Z" fill="#3E3E3E" fill-opacity="0.5"/>
<path fill-rule="evenodd" clip-rule="evenodd" d="M17.0223 14.4511C18.403 14.4511 19.5223 13.3318 19.5223 11.9511C19.5223 10.5704 18.403 9.45108 17.0223 9.45108C15.6416 9.45108 14.5223 10.5704 14.5223 11.9511C14.5223 13.3318 15.6416 14.4511 17.0223 14.4511ZM16.6453 15.5169L17.0415 16.3961L17.4377 15.5169C17.6813 14.9762 18.3392 14.7651 18.8519 15.0631L20.5035 16.023C20.8115 16.202 21.001 16.5314 21.001 16.8876V19.4994C21.001 20.0517 20.5533 20.4994 20.001 20.4994H17.3394C17.2357 20.4994 17.1356 20.4836 17.0415 20.4543C16.9475 20.4836 16.8474 20.4994 16.7437 20.4994H14.082C13.5297 20.4994 13.082 20.0517 13.082 19.4994V16.8876C13.082 16.5314 13.2715 16.202 13.5795 16.023L15.2311 15.0631C15.7438 14.7651 16.4017 14.9762 16.6453 15.5169Z" fill="#3E3E3E" fill-opacity="0.5"/>
</svg>
