 <svg width="10" height="10" viewBox="0 0 10 10" fill="none" xmlns="http://www.w3.org/2000/svg">
      <path d="M9.72066 0.279398C9.34822 -0.09305 8.74436 -0.0930498 8.37191 0.279398L5.00003 3.65128L1.62809 0.279336C1.25564 -0.093112 0.651784 -0.093112 0.279336 0.279336C-0.0931121 0.651784 -0.093112 1.25564 0.279336 1.62809L3.65128 5.00003L0.279384 8.37192C-0.0930639 8.74437 -0.0930642 9.34823 0.279384 9.72068C0.651832 10.0931 1.25569 10.0931 1.62814 9.72068L5.00003 6.34879L8.37186 9.72062C8.74431 10.0931 9.34817 10.0931 9.72062 9.72062C10.0931 9.34817 10.0931 8.74431 9.72062 8.37186L6.34879 5.00003L9.72066 1.62815C10.0931 1.2557 10.0931 0.651846 9.72066 0.279398Z" fill="white" />
    </svg>