<svg width="24" height="25" viewBox="0 0 24 25" fill="none" xmlns="http://www.w3.org/2000/svg">
<path d="M12 24C14.3734 24 16.6935 23.2962 18.6668 21.9776C20.6402 20.6591 22.1783 18.7849 23.0866 16.5922C23.9948 14.3995 24.2324 11.9867 23.7694 9.65892C23.3064 7.33115 22.1635 5.19295 20.4853 3.51472C18.8071 1.83649 16.6689 0.6936 14.3411 0.230577C12.0133 -0.232446 9.60051 0.00519374 7.4078 0.913445C5.21509 1.8217 3.34094 3.35977 2.02237 5.33316C0.703788 7.30655 3.5837e-07 9.62662 0 12L12 12L12 24Z" fill="url(#paint0_angular_270_2243)"/>
<path d="M0.74 18.9C0.74 15.82 2.78 13.64 5.68 13.64C8.58 13.64 10.6 15.82 10.6 18.9V19.44H2.88C3.06 21.28 4.12 22.4 5.68 22.4C6.92 22.4 7.9 21.72 8.3 20.56L10.28 21C9.72 22.88 8 24.16 5.68 24.16C2.78 24.16 0.74 21.98 0.74 18.9ZM5.68 15.4C4.24 15.4 3.24 16.34 2.94 17.9H8.4C8.14 16.34 7.1 15.4 5.68 15.4Z" fill="black"/>
<defs>
<radialGradient id="paint0_angular_270_2243" cx="0" cy="0" r="1" gradientUnits="userSpaceOnUse" gradientTransform="translate(12 12) rotate(90) scale(12)">
<stop stop-color="#FEC492"/>
<stop offset="1" stop-color="#FF8209"/>
</radialGradient>
</defs>
</svg>
