<svg width="14" height="14" viewBox="0 0 14 14" fill="none" xmlns="http://www.w3.org/2000/svg">
<path d="M3.76285 13.4999C1.88009 12.7491 1.6918 11.0645 1.84689 9.66668C1.95443 8.69737 2.75808 8.08325 3.71217 8.08325C4.60688 8.08325 6.41995 8.08691 6.41995 8.08691C7.10357 8.1397 7.59996 8.76343 7.53505 9.43591C7.43502 10.4722 6.21075 10.5837 5.38785 10.7916C6.01924 11.0829 7.25842 11.8867 7.16402 12.7718" stroke="black" stroke-linecap="round" stroke-linejoin="round"/>
<path d="M10.2628 13.5L10.7162 13.0466C11.4663 12.2964 11.8878 11.279 11.8878 10.2181V4.02083C11.8878 3.27295 11.2815 2.66667 10.5336 2.66667C9.78572 2.66667 9.17944 3.27295 9.17944 4.02083V7C7.5635 6.27439 7.16462 6.2022 5.38778 6.45833V1.85417C5.38778 1.10628 4.7815 0.5 4.03361 0.5C3.28572 0.5 2.67944 1.10628 2.67944 1.85417V8.33168" stroke="black" stroke-linecap="round" stroke-linejoin="round"/>
</svg>
