<svg
      width="16"
      height="16"
      viewBox="0 0 16 16"
      fill="none"
      xmlns="http://www.w3.org/2000/svg"
    >
      <path
        d="M10.3578 11.4303C7.42437 13.6708 3.54213 13.0262 1.45076 10.4498C-0.650366 7.86068 -0.445286 4.15504 1.9105 1.84465C4.26779 -0.468741 7.97426 -0.624269 10.4931 1.48025C13.0584 3.62384 13.6339 7.46772 11.4276 10.3566C11.4839 10.3935 11.5568 10.4258 11.6086 10.4784C12.9758 11.8421 14.34 13.2095 15.7079 14.5724C15.9498 14.8136 16.0603 15.0886 15.9671 15.4215C15.8034 16.003 15.0912 16.1931 14.6442 15.7738C14.3843 15.5304 14.1387 15.2719 13.8863 15.0202C12.7459 13.8797 11.6056 12.7399 10.4675 11.5979C10.4194 11.5498 10.3909 11.4822 10.3578 11.4311V11.4303ZM1.59875 6.39405C1.595 9.03353 3.73894 11.1839 6.38545 11.1959C9.03646 11.2079 11.1902 9.06358 11.1962 6.40457C11.2022 3.75607 9.03947 1.58919 6.39672 1.59671C3.75547 1.60347 1.60251 3.75607 1.59875 6.39405Z"
        fill="currentColor"
      />
    </svg>