<svg width="27" height="30" viewBox="0 0 27 30" fill="none" xmlns="http://www.w3.org/2000/svg">
<path d="M2.60802 20.6312C1.57955 23.4135 0.933267 25.3683 0.669162 26.4958C-0.160849 30.039 -0.764368 30.8371 2.32918 29.1532C5.42274 27.4693 20.3991 19.1278 23.7404 17.274C28.096 14.8575 28.1542 15.0463 23.5067 12.4806C19.9671 10.5264 5.16631 2.40249 2.32918 0.807368C-0.507937 -0.787758 -0.160849 -0.0784389 0.669162 3.46479C0.936689 4.60683 1.59236 6.57913 2.63617 9.38169C3.36622 11.3418 5.06436 12.7803 7.11785 13.178L15.7646 14.8529C15.8458 14.8692 15.8985 14.9482 15.8822 15.0294C15.8704 15.0888 15.8239 15.1352 15.7646 15.1471L7.09836 16.8204C5.03821 17.2181 3.33551 18.6632 2.60802 20.6312Z" fill="#3E3E3E"/>
</svg>
