<svg width="24" height="24" viewBox="0 0 24 24" fill="none" xmlns="http://www.w3.org/2000/svg">
<path fill-rule="evenodd" clip-rule="evenodd" d="M10.4305 11.7909C12.3622 11.7909 13.9282 10.2249 13.9282 8.29313C13.9282 6.36139 12.3622 4.79541 10.4305 4.79541C8.49873 4.79541 6.93274 6.36139 6.93274 8.29313C6.93274 10.2249 8.49873 11.7909 10.4305 11.7909ZM9.72351 12.8785L10.4593 14.5114L11.1952 12.8785C11.4388 12.3379 12.0967 12.1268 12.6094 12.4248L15.5012 14.1056C15.8092 14.2846 15.9987 14.6139 15.9987 14.9701V19.253C15.9987 19.8053 15.551 20.253 14.9987 20.253H10.4767L10.4593 20.2529L10.442 20.253H5.91992C5.36764 20.253 4.91992 19.8053 4.91992 19.253V14.9701C4.91992 14.6139 5.10943 14.2846 5.41742 14.1056L8.3093 12.4248C8.82199 12.1268 9.47988 12.3379 9.72351 12.8785Z" fill="#CECECE"/>
<path d="M13.2308 18.4615C15.5674 18.4615 17.4615 16.5674 17.4615 14.2308C17.4615 11.8942 15.5674 10 13.2308 10C10.8942 10 9 11.8942 9 14.2308C9 16.5674 10.8942 18.4615 13.2308 18.4615Z" fill="white" fill-opacity="0.5" stroke="#9E9E9E" stroke-linecap="round" stroke-linejoin="round"/>
<path d="M18.9989 20L16.3066 17.3077" stroke="#9E9E9E" stroke-linecap="round" stroke-linejoin="round"/>
</svg>
